<svg version="1.1" xmlns="http://www.w3.org/2000/svg" xmlns:xlink="http://www.w3.org/1999/xlink" width="248.33905" height="223.15932" viewBox="0,0,248.33905,223.15932"><g transform="translate(-56.89854,-26.16673)"><g data-paper-data="{&quot;isPaintingLayer&quot;:true}" fill-rule="nonzero" stroke="none" stroke-width="0.5" stroke-linecap="butt" stroke-linejoin="miter" stroke-miterlimit="10" stroke-dasharray="" stroke-dashoffset="0" style="mix-blend-mode: normal"><path d="M133.18699,219.04066c-18.59026,8.03081 -16.23665,8.20071 -33.57202,9.63174c-8.7603,0.72316 -15.00787,2.21918 -22.06632,-0.43623c-1.88299,-0.70839 -4.02044,-0.84581 -5.81045,-1.91488c-1.42945,-0.85373 -1.92942,-0.71984 -3.33441,-1.61325c-1.84483,-1.17311 -4.14946,-1.2072 -5.83823,-2.71025c-1.40429,-1.40429 -2.35449,-1.75756 -3.8764,-3.17526c-0.34493,-0.32131 -1.81699,-2.58401 -1.79026,-3.05466c0.35764,-6.29707 3.54605,-6.61705 8.49479,-7.85982c4.02009,-1.00956 7.8498,-1.95542 11.81573,-2.94635c10.10402,-2.5246 15.7458,-4.14269 25.63364,-7.41306c5.85795,-1.93752 9.15851,-3.15347 14.50855,-6.22701c3.71807,-1.55701 5.43934,-3.18111 9.04507,-4.98307c2.65217,-1.32542 4.83594,-4.28068 7.16888,-6.10624c2.92135,-2.28601 5.49609,-3.84526 7.81561,-6.79401c4.73723,-5.92145 9.9349,-10.94856 13.87203,-17.49165c3.19054,-5.30234 4.22574,-11.53492 6.84406,-17.06463c1.34273,-2.68547 1.27401,-6.29691 2.14406,-9.48832c2.66452,-9.77367 5.2113,-19.51225 7.66666,-29.33333c0.74417,-2.97659 0.7363,-6.21515 1.62602,-9.13796c1.39428,-4.58033 2.77288,-8.7966 4.54924,-13.19135c2.16422,-5.35441 2.34209,-6.29551 6.34735,-13.51571c1.25148,-2.50294 2.90132,-4.63949 4.23607,-7.04862c3.80296,-6.86409 5.51036,-13.36729 14.08052,-18.21836c3.48012,-1.96989 0.0614,0.07399 6.29632,-3.02612c14.79135,-7.35453 21.89453,-9.54712 34.62316,-9.75552c7.93184,0 15.54703,1.30844 22.93965,4.07464c2.40576,0.9002 4.04596,2.55029 6.22703,3.75869c1.78246,0.98756 2.90778,1.13545 4.60109,2.56558c2.19972,2.19972 5.04704,3.86796 6.98906,6.32244c6.50041,8.21575 8.35443,18.54334 6.36128,28.60229c-2.70777,13.53833 -12.2748,23.67068 -24.33338,29.74576c-11.98586,5.9929 -20.45422,3.89526 -33.78472,5.26393c-1.19825,0 -1.16579,1.68214 -0.83331,2.83334c0.5774,1.99926 2.95638,4.94104 4.24676,6.61326c3.81244,4.94059 12.17886,10.26282 18.64688,7.96136c10.50612,-2.62647 20.74034,-6.96469 31.93967,-5.07463c3.80804,0.64267 7.05104,2.23044 10.45135,3.93059c6.19613,3.09806 7.38178,9.04131 8.01464,15.49171c0.30603,3.11922 0.09019,3.53702 -2.68131,5.98043c-0.37273,0.32861 -0.84325,0.74868 -1.33334,0.66666c-3.34294,-0.55948 -6.27807,-5.5595 -8.70712,-7.37985c-1.84366,3.00676 5.23317,14.44326 -2.05119,16.73595c-5.65467,1.77976 -8.717,-3.38307 -10.02986,-7.07182c-1.1402,3.3116 -1.09902,9.04669 -3.56207,11.58076c-1.38553,1.38553 -4.06875,0.44063 -5.86886,-0.33334c-3.32973,-1.43164 -1.91077,-7.35982 -5.3333,-9.33332c-0.22281,-0.12848 -3.56954,0.06555 -4.23223,0.06555c-5.11774,0 -9.93069,1.25035 -15.00003,1.33334c-6.34539,0 -15.59649,1.73689 -20.49998,-3.16667c-1.07754,-1.07756 -1.92191,-2.28949 -2.66667,-3.56988c-6.00593,5.64037 -3.6277,11.55387 -4.30186,19.21931c-1.20758,13.73076 -0.25134,23.94824 -3.92495,39.38392c-3.82369,16.06626 5.20416,14.77087 10.37811,23.40082c1.12396,1.87471 2.28196,3.79601 3.49242,5.61289c0.09762,0.14653 1.87053,2.41614 1.85628,2.45294c-0.00908,0.02346 1.37902,9.22375 -1.02109,10.42909c-4.10712,2.0626 -6.35898,-4.589 -10.10973,-6.42766c-2.38604,4.96345 -1.86764,3.57354 -2.10141,10.26633c-0.27674,0.38163 -0.53406,0.92843 -1,1c-5.63053,0.86485 -8.63688,-3.41017 -10.67051,-7.98303c-0.51441,-1.15671 -0.5004,-2.65132 -1.41846,-3.52297c-1.21195,-1.1507 -2.67057,1.13417 -2.94991,2.78187c-0.25672,1.5143 0.21403,3.49839 -0.7902,5.07709l0.06129,0.04597l-1.98254,2.64335c-0.45492,0.62043 -1.18914,1.02326 -2.01745,1.02326c-1.22887,0 -1.46041,1.00997 -2.46053,-2.05511c-1.00012,-3.06508 -0.7164,-7.57357 -2.6576,-11.9546c-0.30625,-0.69115 -0.26543,-2.24353 -0.60023,-2.92131c-1.31443,-2.66095 -3.85824,-2.64201 -5.78163,-4.90231c-2.07141,-2.43423 -2.88071,-5.56699 -3,-8.66665c0,-8.33 0.66666,-13.00335 0.66666,-21.33335c0,-1.24741 1.54209,-9.00494 0.67692,-10.21654c-0.19645,-0.2751 -0.43121,1.85454 -5.90882,6.26148c-20.21028,16.25992 -44.41448,25.66235 -44.41448,25.66235z" fill="#66dcff"/><path d="M205.54865,41.76397c2.886,-1.04985 3.35747,-1.2703 4.45135,-0.26393c1.12266,1.03285 1.83555,2.46013 2.5,3.83333c1.11719,2.30885 -4.4933,7.22753 -6.06554,8.43443c-0.20267,0.15558 -0.41721,0.29358 -0.63812,0.42202c-0.81129,1.25599 -1.93386,2.44629 -3.12147,3.5277c-0.10368,0.13452 -0.20678,0.26975 -0.30905,0.40588l-1.01502,1.35336c-1.22828,1.67518 -2.60687,2.35661 -4.68411,2.35661c-1.38071,0 -2.5,-1.11929 -2.5,-2.5c0,-0.29691 0.05176,-0.58172 0.14674,-0.84592c0,0 0.69089,-2.44648 1.31486,-3.94464c0.45086,-1.08255 0.91626,-2.06398 1.45221,-2.98835c0.34552,-1.61404 0.8977,-2.97232 1.97655,-4.58811c0,0 1.04714,-3.22183 6.4916,-5.20238z" fill="#ffdb66"/><path d="M180.41886,85.50443c0.93666,-2.81437 3.42992,-6.77883 3.42992,-6.77883c0.60317,-1.01593 1.71679,-2.49332 1.71679,-2.49332l2,-2v0v0c2.85314,-2.85314 7.81461,2.67929 6.19312,6.3741c-1.29594,2.95299 -3.19794,6.09979 -5.21127,8.63197c-1.00206,1.88795 -1.52391,2.97146 -2.47977,4.88321c-0.83362,2.24499 -2.47404,5.61474 -2.47404,5.61474c-0.40086,0.84561 -1.26228,1.4304 -2.26028,1.4304c-1.38071,0 -2.5,-1.11929 -2.5,-2.5c0,0 -0.18731,-2.13663 -0.14731,-3.5205c0.16542,-5.72343 1.73284,-9.64177 1.73284,-9.64177z" fill="#ffdb66"/><path d="M170.45045,129.57055c0.15184,-0.94477 0.36118,-1.45926 0.43144,-2.41357c0.13212,-1.79534 0.61041,-3.95833 1.29702,-5.9647c0.02114,-0.32579 0.08397,-0.54569 0.08397,-0.54569c0.56976,-1.9942 1.50106,-5.09794 1.50106,-5.09794l1.30912,-2.61821c0.40086,-0.84561 1.26228,-1.4304 2.26028,-1.4304c2.06663,0 3.06199,1.16063 3.87822,3.05924c3.05084,7.09644 -3.25938,19.00249 -3.25938,19.00249l-2.18079,4.3272c-0.25264,1.11331 -1.24828,1.94441 -2.43804,1.94441c-1.18976,0 -2.1854,-0.8311 -2.43804,-1.94441c0,0 -0.78815,-3.31163 -0.72509,-5.46074z" fill="#ffdb66"/><path d="M165.42245,150.99146c2.60511,-0.70888 5.20115,0.94097 5.20115,3.64081c0,0.36939 -0.08011,0.72006 -0.22391,1.0356l-0.96303,2.24706c0.05514,0.26382 -1.45761,3.25445 -1.72681,3.79659c-3.69123,7.4337 -14.23544,15.73081 -14.23544,15.73081c-0.45492,0.62045 -1.18915,1.02328 -2.01746,1.02328c-1.66235,0 -2.8809,-1.65473 -2.38795,-3.24231c0,0 0.96403,-4.03307 2.15187,-6.37574c5.0284,-9.91703 11.59647,-17.14722 14.20158,-17.8561z" fill="#ffdb66"/><path d="M137.80861,184.49866c1.01427,-0.75226 1.63911,-1.17466 2.85808,-1.5072c1.21897,-0.33255 2.66666,0 2.66666,0c1.38071,0 2.5,1.11929 2.5,2.5c0,0.61476 -0.22189,1.17769 -0.58995,1.61307c0,0 -2.84666,6.51344 -9.95715,9.19736c-2.50695,1.05018 -3.85259,1.78914 -6.36176,2.83401l0.00403,0.01007l-3.28067,1.31232c-0.30124,0.12866 -0.63287,0.19988 -0.98115,0.19988c-1.38071,0 -2.5,-1.11929 -2.5,-2.5c0,-0.79811 0.43825,-1.43723 0.95628,-1.96659c1.5306,-1.56408 2.47047,-2.83303 4.33485,-4.33238c3.58843,-2.88584 10.35078,-7.36054 10.35078,-7.36054z" fill="#ffdb66"/><path d="M109.00554,210.6186c-3.06197,1.83716 -5.43254,2.55548 -8.50859,0.60034c-1.58608,-1.00812 -1.85062,-2.28436 -2.12358,-4.14378c-0.51929,-3.5374 3.98301,-4.91964 9.46966,-6.52653c1.56743,-0.45906 2.52371,-0.38189 4.15697,-0.38189c1.38071,0 2.5,1.11929 2.5,2.5c0,1.06276 0.53069,1.3942 -0.88822,3.55095c-1.41891,2.15675 -4.60623,4.40091 -4.60623,4.40091z" fill="#ffdb66"/><path d="M89.33334,210.16673c4.55016,4.4264 0.70678,7.06735 -3.39852,8.23945l0.00482,0.01929l-2.61227,0.65303c-2.5286,0.69108 -6.66068,0.75493 -6.66068,0.75493h-3.33334c-2.44116,0 -4.00289,-1.27142 -4.96452,-3.5152c-1.40764,-3.28449 2.27696,-4.42068 6.13515,-5.24897c1.37787,-0.29581 2.09744,-0.72902 3.49602,-0.90251c2.01907,-0.25046 2.59654,-0.25229 4.20184,-0.48769c2.90856,-0.42652 5.81027,-0.79762 7.1315,0.48767z" fill="#ffdb66"/><path d="M223.2223,38.94668c0,0 -1.93267,0.8867 -3.2223,0.8867c-2.31102,0 -4.53149,0.34837 -5.09201,-1.89364c-0.60636,-2.42535 0.45115,-2.89041 1.81899,-3.03171c3.86253,-0.39901 3.35335,-1.06057 5.5067,-1.71822l-0.01836,-0.09248c1.43706,-0.71853 2.178,-1.59728 3.78468,-1.59728c1.38071,0 2.5,1.11929 2.5,2.5c0,0.92661 -0.50411,1.73548 -1.25304,2.1673z" fill="#ffdb66"/><path d="M241.50003,58.00005c0,-1.38071 1.11929,-2.5 2.5,-2.5c1.38071,0 2.5,1.11929 2.5,2.5c0,1.38071 -1.11929,2.5 -2.5,2.5c-1.38071,0 -2.5,-1.11929 -2.5,-2.5z" fill="#000000"/><path d="M257.50003,38.66671c0,-1.38071 1.11929,-2.5 2.5,-2.5c1.38071,0 2.5,1.11929 2.5,2.5c0,1.38071 -1.11929,2.5 -2.5,2.5c-1.38071,0 -2.5,-1.11929 -2.5,-2.5z" fill="#000000"/><path d="M277.78175,60.16149c0.19713,0.95531 -0.02307,2.44494 -0.02307,2.44494c-0.11111,0.44444 -0.22223,0.88889 -0.33334,1.33333c-2.44182,9.76693 -6.44666,17.18616 -15.47245,22.20404c-3.08448,1.71482 -5.35089,3.02293 -8.9529,3.02293c-11.16011,-0.36648 -22.16666,-7.91371 -22.16666,-19.83331c0,0 0,-2.5 2.5,-2.5c2.5,0 2.5,2.5 2.5,2.5c0,8.52124 8.7541,15.4255 17.16666,14.83331c2.72372,0 4.05456,-1.01906 6.38041,-2.31039c7.87367,-4.37151 11.06653,-10.61876 13.19424,-19.1293c0.11111,-0.44444 0.22223,-0.88889 0.33334,-1.33333c0.11111,-0.44444 0.51446,-2.82002 1.92012,-3.1754c1.40566,-0.35538 2.44842,-0.50523 2.95365,1.94319z" fill="#000000"/></g></g></svg>